<?xml version="1.0" standalone="no"?>
<!DOCTYPE svg PUBLIC "-//W3C//DTD SVG 20010904//EN"
 "http://www.w3.org/TR/2001/REC-SVG-20010904/DTD/svg10.dtd">
<svg version="1.0" xmlns="http://www.w3.org/2000/svg"
 width="500.000000pt" height="500.000000pt" viewBox="0 0 500.000000 500.000000"
 preserveAspectRatio="xMidYMid meet">

<g transform="translate(0.000000,500.000000) scale(0.100000,-0.100000)"
fill="#000000" stroke="none">
<path d="M2283 4843 c-25 -5 -63 -47 -63 -70 0 -25 46 -61 89 -68 32 -5 41
-11 39 -23 -5 -25 -54 -28 -67 -4 -7 14 -18 18 -36 15 -29 -6 -29 -7 -13 -36
18 -35 40 -46 86 -47 107 0 127 129 23 146 -52 8 -71 21 -51 34 20 13 26 13
44 -5 16 -17 52 -20 61 -5 8 14 -15 47 -42 59 -24 11 -31 12 -70 4z"/>
<path d="M2512 4833 c-15 -27 -82 -196 -82 -205 0 -4 11 -8 25 -8 18 0 28 7
35 25 8 21 16 25 50 25 34 0 42 -4 50 -25 7 -18 17 -25 35 -25 14 0 25 6 25
13 0 6 -18 57 -39 112 -34 86 -43 100 -65 103 -16 2 -28 -3 -34 -15z m42 -89
c9 -23 8 -24 -13 -24 -14 0 -18 5 -14 20 6 24 19 26 27 4z"/>
<path d="M2692 4746 c-17 -133 -16 -138 11 -134 19 3 24 12 32 63 l10 59 29
-63 c26 -58 60 -90 78 -72 4 3 13 52 20 109 14 99 14 104 -5 113 -25 14 -30 7
-42 -59 l-10 -57 -30 67 c-26 58 -34 68 -56 68 -25 0 -26 -2 -37 -94z"/>
<path d="M2927 4791 c-6 -25 0 -31 30 -31 28 0 30 -25 8 -111 -17 -65 -14 -79
15 -79 20 0 22 5 51 122 11 45 13 48 43 45 25 -2 31 2 31 18 0 16 -13 22 -75
37 -95 22 -97 22 -103 -1z"/>
<path d="M1965 4790 c-16 -4 -42 -11 -56 -14 l-27 -6 19 -87 c11 -49 22 -98
24 -111 4 -17 12 -22 28 -20 20 3 22 8 20 51 -3 58 8 60 65 12 32 -28 46 -34
66 -29 15 3 26 10 26 14 0 4 -18 24 -39 43 -33 30 -37 38 -25 48 20 17 17 66
-6 89 -21 21 -45 24 -95 10z m53 -62 c-2 -18 -11 -24 -35 -26 -27 -3 -33 0
-33 17 0 18 13 25 58 30 8 0 12 -7 10 -21z"/>
<path d="M3126 4653 c-20 -58 -33 -110 -30 -114 3 -5 16 -9 29 -9 18 0 25 7
30 33 4 17 9 36 12 40 9 15 32 -15 48 -63 12 -37 22 -50 42 -55 14 -3 27 -4
29 -3 2 2 -3 26 -12 53 -10 36 -11 51 -3 54 25 8 49 43 49 71 0 35 -21 51
-102 79 l-57 19 -35 -105z m112 31 c27 -8 31 -44 5 -44 -41 0 -61 12 -56 31 6
20 14 22 51 13z"/>
<path d="M1723 4720 c-20 -8 -22 -16 -25 -125 -2 -65 0 -119 3 -120 3 -2 15
-1 27 2 16 4 22 13 22 33 0 24 6 30 36 40 30 10 38 9 53 -4 20 -18 39 -20 60
-7 10 7 -4 30 -65 100 -43 50 -80 91 -83 90 -4 0 -16 -4 -28 -9z m54 -99 c10
-16 9 -20 -8 -24 -15 -4 -19 0 -19 19 0 29 11 31 27 5z"/>
<path d="M3343 4575 c-39 -101 -40 -106 -22 -116 11 -5 23 -7 28 -5 10 7 81
185 81 204 0 7 -4 12 -9 12 -5 0 -16 2 -23 5 -11 4 -26 -23 -55 -100z"/>
<path d="M1520 4639 c-37 -15 -70 -50 -70 -74 0 -12 10 -32 22 -44 18 -21 28
-23 74 -18 56 6 74 -4 54 -28 -15 -18 -51 -20 -67 -4 -8 8 -17 7 -31 -2 l-21
-13 21 -23 c49 -52 158 -10 158 61 0 51 -28 69 -100 67 -35 -1 -60 3 -60 9 0
12 45 24 60 15 15 -9 50 4 50 19 0 30 -52 50 -90 35z"/>
<path d="M3578 4556 c-10 -7 -18 -23 -18 -34 0 -13 -9 -23 -22 -28 -36 -10
-58 -35 -58 -63 0 -40 26 -69 73 -83 23 -7 47 -18 52 -26 17 -22 48 -4 41 24
-4 16 -1 26 11 33 15 8 16 13 6 28 -6 10 -16 17 -21 16 -6 -1 -12 4 -15 11 -4
9 5 19 23 26 34 14 46 41 30 69 -20 39 -70 52 -102 27z m62 -46 c0 -5 -7 -10
-15 -10 -8 0 -15 5 -15 10 0 6 7 10 15 10 8 0 15 -4 15 -10z m-67 -82 c8 -30
-1 -40 -24 -28 -30 16 -23 45 12 49 4 1 9 -9 12 -21z"/>
<path d="M1303 4524 c-35 -20 -63 -40 -63 -46 0 -16 94 -180 106 -185 14 -5
144 69 144 82 0 6 -4 16 -9 24 -8 12 -18 10 -60 -17 -51 -31 -51 -31 -62 -10
-13 23 -10 27 52 61 30 17 31 19 15 35 -16 16 -19 16 -58 -6 -36 -19 -44 -21
-56 -8 -13 12 -9 17 24 35 60 31 65 36 58 54 -9 24 -20 21 -91 -19z"/>
<path d="M2310 4474 c-19 -3 -97 -16 -172 -29 -443 -80 -864 -328 -1152 -680
-173 -210 -274 -390 -355 -630 -102 -303 -128 -662 -71 -985 121 -693 643
-1295 1315 -1518 411 -137 856 -137 1260 0 563 190 1011 625 1223 1188 43 114
72 221 99 370 28 151 25 486 -5 653 -99 550 -413 1021 -881 1324 -119 77 -324
175 -456 218 -191 62 -351 87 -575 90 -107 2 -211 1 -230 -1z m-343 -766 c-3
-7 -5 -2 -5 12 0 14 2 19 5 13 2 -7 2 -19 0 -25z m20 0 c-3 -7 -5 -2 -5 12 0
14 2 19 5 13 2 -7 2 -19 0 -25z m1060 0 c-3 -7 -5 -2 -5 12 0 14 2 19 5 13 2
-7 2 -19 0 -25z m-1110 0 c-3 -8 -6 -5 -6 6 -1 11 2 17 5 13 3 -3 4 -12 1 -19z
m83 12 c0 -5 -4 -10 -10 -10 -5 0 -10 5 -10 10 0 6 5 10 10 10 6 0 10 -4 10
-10z m977 -12 c-3 -8 -6 -5 -6 6 -1 11 2 17 5 13 3 -3 4 -12 1 -19z m30 0 c-3
-8 -6 -5 -6 6 -1 11 2 17 5 13 3 -3 4 -12 1 -19z m53 12 c0 -5 -4 -10 -10 -10
-5 0 -10 5 -10 10 0 6 5 10 10 10 6 0 10 -4 10 -10z m-444 -166 c-3 -9 -6 -20
-6 -25 0 -5 -12 -9 -27 -9 l-28 0 25 24 c29 29 45 33 36 10z m58 -86 c-32 -46
-58 -84 -58 -85 -1 -1 -12 5 -26 13 -24 15 -24 15 -2 11 24 -6 42 16 42 52 0
18 74 90 93 91 5 0 -17 -37 -49 -82z m238 12 l58 0 0 -174 0 -174 -31 -11
c-17 -6 -33 -20 -36 -31 -5 -19 -6 -19 -37 -2 -39 22 -43 26 -50 75 -5 28 -17
50 -43 73 -20 19 -42 34 -49 34 -7 0 -26 19 -43 42 -17 23 -31 37 -31 32 0 -6
5 -15 12 -22 16 -16 3 -15 -31 3 -26 13 -47 42 -38 51 2 2 12 -2 22 -10 18
-13 23 -9 64 48 25 33 55 76 68 93 l24 33 41 -30 c34 -25 50 -30 100 -30z
m-1863 -35 c3 -19 -23 -45 -46 -45 -18 0 -16 30 4 52 19 22 37 19 42 -7z
m-147 -5 c42 -12 98 -83 98 -126 0 -29 16 -32 25 -3 4 11 22 27 40 35 19 7 36
18 40 24 11 18 93 12 104 -7 10 -17 12 -17 25 0 7 9 18 17 24 17 16 0 82 -40
82 -50 0 -4 19 -10 43 -13 100 -13 145 -25 201 -51 32 -15 86 -33 119 -40 34
-7 63 -18 65 -24 2 -8 29 -12 73 -12 l69 0 0 -29 c0 -25 -6 -32 -36 -43 -33
-12 -35 -15 -29 -43 3 -16 9 -49 12 -72 4 -35 2 -42 -16 -48 -25 -7 -27 -23
-6 -31 23 -9 20 -90 -5 -121 -17 -22 -20 -41 -20 -139 0 -63 -3 -114 -6 -114
-3 0 -19 9 -35 21 -43 31 -184 52 -289 44 -123 -9 -158 -8 -223 3 -59 10 -97
33 -97 58 0 7 -20 27 -45 44 -25 17 -45 35 -45 41 0 5 -12 15 -27 21 -47 20
-73 49 -73 82 -1 24 -8 36 -33 51 -21 13 -43 42 -62 82 -16 34 -40 72 -52 83
-13 11 -23 26 -23 31 0 6 -18 31 -40 56 -45 51 -54 97 -21 108 20 6 61 -13 61
-27 0 -14 20 -8 26 6 3 8 -8 32 -25 54 -36 44 -50 104 -31 127 15 18 77 20
132 5z m2305 -43 c32 -14 74 -27 94 -31 20 -3 45 -16 55 -27 10 -12 49 -39 86
-60 37 -22 70 -43 73 -48 3 -6 29 -15 59 -21 36 -7 67 -22 94 -45 22 -19 76
-53 121 -76 86 -43 91 -48 180 -190 50 -79 66 -89 141 -89 32 0 140 -100 140
-130 0 -10 -16 -46 -36 -79 -28 -46 -40 -59 -49 -51 -20 16 -103 -41 -153
-105 -24 -30 -47 -55 -51 -55 -4 0 -18 -8 -29 -18 -18 -16 -30 -18 -69 -11
-27 4 -71 8 -100 8 -43 1 -55 -3 -67 -21 -9 -12 -16 -35 -16 -50 0 -26 -3 -28
-38 -28 -38 0 -112 -38 -141 -73 -17 -21 -55 -22 -86 -1 -23 15 -28 15 -65 0
-22 -9 -48 -16 -57 -16 -27 0 -42 -32 -43 -93 0 -52 -2 -57 -17 -49 -31 16
-93 24 -93 12 0 -6 7 -13 15 -16 24 -10 18 -33 -6 -27 -16 4 -20 2 -17 -8 5
-15 65 -31 88 -23 12 5 10 8 -7 15 -31 11 -29 29 2 29 29 0 30 -3 9 -84 -66
-255 -262 -464 -519 -552 -71 -24 -95 -28 -215 -28 -153 -1 -202 10 -335 74
-144 70 -260 184 -345 342 -47 89 -90 244 -90 329 0 33 -4 59 -10 59 -6 0 -10
68 -10 185 l0 185 195 0 195 0 0 134 c0 106 -3 136 -15 146 -21 17 -21 106 0
114 21 8 19 24 -5 31 -15 5 -20 15 -20 40 0 29 7 40 46 70 36 27 57 35 88 35
43 1 87 28 99 63 4 10 17 17 31 17 18 0 24 -4 20 -15 -4 -8 -11 -15 -17 -15
-6 0 -8 -3 -5 -6 11 -11 58 28 58 48 0 10 7 33 16 50 12 24 18 28 25 17 22
-34 -6 -124 -44 -139 -12 -5 -16 -9 -7 -9 23 -1 34 10 60 56 20 36 21 45 11
74 -10 29 -8 39 11 76 26 49 48 56 47 16 -1 -48 -44 -202 -62 -223 -23 -27
-22 -30 13 -30 32 0 53 24 66 75 8 30 8 30 16 -14 10 -56 -13 -94 -52 -85 -25
6 -25 5 -5 -13 20 -19 20 -19 47 15 20 24 28 46 28 73 0 21 5 41 10 44 6 3 10
14 10 23 0 13 -2 13 -15 -4 -9 -12 -14 -14 -15 -6 0 7 -4 11 -9 8 -12 -8 -21
29 -21 87 0 41 3 47 20 47 12 0 25 10 32 25 6 14 14 25 18 25 10 0 20 -38 20
-78 0 -20 4 -31 10 -27 6 3 10 15 10 26 0 18 2 19 37 4 48 -20 53 -30 48 -89
-3 -38 -11 -56 -35 -81 -16 -17 -30 -36 -30 -42 0 -7 15 -21 33 -33 l32 -22
-28 26 c-28 26 -28 28 -13 51 22 33 42 32 52 -2 5 -20 8 -23 11 -11 2 9 0 25
-6 36 -16 30 -3 60 24 54 31 -5 49 -51 43 -106 -5 -44 5 -76 24 -76 7 0 6 6
-2 15 -11 13 -10 14 6 9 16 -6 17 -5 7 7 -7 7 -13 30 -13 51 0 51 -23 94 -60
113 -18 9 -30 23 -30 36 0 19 2 19 30 4 37 -19 56 -48 65 -98 6 -29 16 -44 44
-62 65 -43 71 -51 71 -88 0 -27 -5 -37 -20 -42 -24 -7 -26 -23 -5 -31 21 -8
20 -92 -1 -115 -12 -13 -16 -45 -17 -146 l-2 -128 140 0 139 0 4 119 c4 108 2
121 -17 147 -27 37 -29 114 -3 124 15 6 15 8 -5 25 -24 19 -33 83 -13 95 6 3
10 19 10 34 0 22 -7 29 -35 40 l-35 12 0 153 0 153 44 -8 c25 -4 71 -19 103
-32z m-673 7 c19 -7 21 -35 4 -52 -18 -18 -31 -15 -47 10 -12 19 -11 23 5 35
21 15 18 15 38 7z m-94 -69 c0 -2 -14 -20 -30 -39 -34 -38 -63 -100 -52 -111
4 -4 -2 -3 -13 2 -31 16 -54 8 -88 -32 -26 -30 -41 -38 -76 -41 -24 -2 -59
-14 -78 -25 -32 -20 -33 -20 -33 -1 0 13 -10 22 -32 28 -29 9 -33 14 -36 49
-5 55 13 65 114 65 136 0 214 23 282 81 32 28 42 34 42 24z m-409 -271 c5 -3
6 -11 2 -17 -4 -6 -6 -27 -4 -45 2 -25 -1 -33 -11 -30 -7 3 -13 20 -14 41 -1
52 -14 59 -14 9 0 -41 -1 -42 -34 -42 -33 0 -34 2 -38 43 -3 23 -3 46 0 50 4
9 97 1 113 -9z m1063 -4 c7 -7 8 -13 1 -18 -6 -4 -11 -22 -10 -39 0 -18 -4
-31 -10 -30 -5 2 -10 20 -10 40 0 19 -3 39 -7 43 -5 4 -8 -11 -8 -34 0 -41 -1
-42 -35 -42 -33 0 -35 2 -35 35 0 19 -4 35 -8 35 -5 0 -8 -17 -8 -37 1 -22 -4
-38 -13 -41 -10 -3 -12 4 -9 32 2 19 0 37 -6 39 -5 2 -6 9 -2 16 5 7 14 10 22
7 7 -3 16 -1 18 3 8 12 107 4 120 -9z m-1196 -12 c0 -13 1 -27 2 -33 5 -22 -1
-45 -11 -45 -6 0 -9 14 -8 33 2 18 0 37 -4 43 -3 6 -4 14 0 18 12 12 21 6 21
-16z m52 -191 c0 -43 -32 -76 -55 -57 -18 15 -20 76 -2 83 6 3 22 6 35 6 19 1
22 -4 22 -32z m64 27 c21 -8 21 -67 0 -84 -20 -17 -46 7 -50 46 -5 42 10 53
50 38z m996 -27 c0 -43 -32 -76 -55 -57 -18 15 -20 76 -2 83 6 3 22 6 35 6 19
1 22 -4 22 -32z m64 27 c21 -8 21 -67 1 -84 -21 -18 -55 13 -55 50 0 39 16 49
54 34z m-1094 -210 l0 -104 -25 0 -25 0 0 103 c0 107 10 138 37 116 9 -8 13
-41 13 -115z m80 0 l0 -104 -25 0 -25 0 0 103 c0 107 10 138 37 116 9 -8 13
-41 13 -115z m980 0 l0 -104 -25 0 -25 0 0 103 c0 107 10 138 37 116 9 -8 13
-41 13 -115z m80 0 l0 -104 -25 0 -25 0 0 103 c0 107 10 138 37 116 9 -8 13
-41 13 -115z m-1222 3 l3 -107 -26 0 -25 0 0 103 c0 107 3 120 30 115 12 -3
16 -23 18 -111z m1060 0 l3 -107 -26 0 -25 0 0 103 c0 107 3 120 30 115 12 -3
16 -23 18 -111z m-1313 -616 c3 -6 7 -29 9 -53 2 -24 9 -56 15 -71 14 -35 14
-67 1 -67 -6 0 -13 14 -16 30 -8 39 -28 39 -22 0 6 -42 -10 -49 -23 -11 -15
43 -33 40 -26 -4 7 -42 -9 -56 -23 -20 -21 55 -14 72 35 84 46 12 51 16 36 39
-6 10 -21 12 -55 7 -37 -6 -46 -4 -46 8 0 10 15 17 45 21 36 6 45 11 45 27 0
20 15 26 25 10z m1800 -21 c3 -5 -3 -15 -15 -22 -22 -14 -26 -38 -9 -55 6 -6
8 -16 4 -22 -7 -13 -74 21 -102 51 -21 23 -15 28 49 44 68 16 66 16 73 4z
m-80 -113 c31 -8 50 -19 50 -28 0 -16 -4 -16 -67 1 -28 7 -48 18 -48 26 0 17
2 17 65 1z m-55 -69 c-13 -10 -20 -21 -16 -25 3 -4 16 3 29 15 36 34 77 23 77
-20 0 -26 -36 -59 -56 -51 -15 6 -15 8 4 24 23 18 29 39 12 39 -6 0 -13 -7
-16 -15 -10 -25 -43 -38 -60 -24 -30 25 -1 95 33 82 14 -5 12 -9 -7 -25z
m-1613 -14 c4 -11 -2 -23 -18 -35 l-24 -19 31 0 c20 0 34 -6 38 -16 8 -21 8
-21 -52 -44 -35 -14 -53 -16 -58 -9 -4 6 0 15 7 20 11 7 11 9 -3 9 -29 0 -32
22 -7 41 l24 18 -27 -2 c-43 -3 -32 17 20 35 60 21 61 21 69 2z m1564 -93 c-7
-13 -8 -22 -1 -26 5 -3 15 5 22 20 12 26 36 29 29 4 -2 -8 -6 -22 -8 -31 -8
-28 16 -21 27 7 10 26 30 34 30 13 0 -7 -9 -28 -20 -46 l-20 -32 -50 25 c-54
27 -56 31 -37 66 26 50 31 56 35 37 2 -9 -2 -26 -7 -37z m316 -18 c10 -21 46
-70 80 -109 65 -75 67 -83 16 -98 -15 -5 -23 -15 -23 -31 0 -29 -16 -35 -96
-35 -59 0 -65 2 -76 25 -6 14 -33 39 -59 56 l-48 30 46 92 c25 51 51 95 57 99
6 4 28 8 49 8 34 0 39 -4 54 -37z m-1823 -15 c24 -34 20 -67 -9 -78 -14 -5
-25 -14 -25 -20 0 -5 -11 -10 -25 -10 -17 0 -29 9 -40 30 -21 42 -20 46 28 74
51 31 52 31 71 4z m1551 -90 c0 -8 -17 -15 -45 -18 l-44 -5 27 -18 c48 -31 19
-39 -34 -10 -59 34 -61 56 -4 63 l39 5 -27 18 c-15 10 -25 22 -22 28 8 13 110
-46 110 -63z m-1483 -15 c27 -24 23 -68 -8 -92 -36 -28 -58 -26 -83 5 -27 34
-26 52 1 81 25 27 64 30 90 6z m1372 -44 c46 -36 25 -109 -32 -109 -31 0 -72
36 -72 62 0 22 43 68 63 68 8 0 26 -9 41 -21z m-1276 -94 c-2 -12 -12 -21 -25
-23 -13 -2 -23 -11 -25 -25 -2 -12 -11 -23 -21 -25 -15 -3 -17 2 -11 40 7 42
7 43 -13 26 -21 -19 -43 -24 -43 -9 0 5 19 28 42 50 l42 41 28 -27 c17 -16 28
-36 26 -48z m1190 -5 c28 -26 28 -57 0 -87 -29 -31 -41 -29 -77 14 -37 45 -38
57 -9 77 30 22 60 20 86 -4z m-1121 -32 c42 -39 18 -108 -37 -108 -61 0 -82
59 -37 108 26 28 44 28 74 0z m1031 -58 c41 -54 31 -71 -28 -47 l-42 16 16
-24 c38 -58 8 -61 -34 -3 -37 50 -39 73 -7 64 76 -21 72 -21 54 5 -42 58 -5
49 41 -11z m-918 -51 l-9 -29 30 21 c22 16 34 18 42 10 13 -13 -30 -111 -50
-111 -16 0 -17 14 -2 43 l12 22 -25 -22 c-31 -30 -38 -29 -38 4 0 26 -1 26
-14 7 -20 -27 -31 -10 -16 26 21 52 50 82 65 70 9 -8 11 -20 5 -41z m830 -64
c0 -28 -19 -15 -46 30 -16 27 -23 52 -19 62 5 14 12 8 36 -30 16 -26 29 -54
29 -62z m-121 52 c6 -8 17 -33 26 -56 12 -36 13 -43 0 -47 -8 -3 -26 4 -41 15
-32 25 -38 23 -25 -12 7 -18 7 -28 0 -33 -14 -9 -23 3 -43 59 -23 62 -12 75
38 41 l38 -26 -7 23 c-4 13 -10 30 -12 37 -7 16 12 16 26 -1z m-561 -80 c3
-70 -10 -89 -28 -42 -10 26 -43 34 -56 14 -4 -7 -9 -8 -17 0 -7 7 2 24 29 55
54 62 68 57 72 -27z m130 31 c15 -13 16 -38 1 -38 -7 0 -18 8 -25 18 -17 23
-48 5 -52 -31 -2 -19 2 -27 18 -32 23 -7 44 5 23 12 -22 8 -14 23 12 23 20 0
25 -5 25 -25 0 -37 -38 -52 -79 -31 -25 13 -31 23 -31 49 0 37 7 49 35 65 21
12 50 7 73 -10z m320 -32 c36 -54 39 -66 17 -66 -8 0 -15 5 -15 10 0 19 -48
10 -64 -12 -16 -22 -17 -21 -12 39 7 100 21 106 74 29z m-88 24 c0 -5 -7 -10
-17 -12 -12 -2 -17 -14 -17 -48 -1 -59 -19 -63 -29 -6 -10 49 -20 55 -79 48
-45 -5 -51 -22 -8 -22 17 0 30 -4 30 -10 0 -5 -13 -10 -30 -10 -42 0 -40 -28
3 -32 47 -4 35 -23 -15 -23 l-43 0 -3 62 -3 62 86 0 c47 -1 89 1 92 4 7 8 33
-3 33 -13z"/>
<path d="M2617 3205 c4 -17 7 -48 6 -70 -2 -27 0 -35 7 -25 5 8 6 18 4 22 -3
4 -1 8 4 8 6 0 5 16 -2 39 -13 46 -31 70 -19 26z"/>
<path d="M2314 3099 c-15 -16 -26 -20 -53 -15 -34 5 -61 -6 -61 -27 0 -7 4 -7
12 1 7 7 43 12 91 12 49 0 76 4 72 10 -3 6 -18 10 -32 10 -21 0 -24 2 -13 15
19 23 6 18 -16 -6z"/>
<path d="M2393 3043 c9 -2 23 -2 30 0 6 3 -1 5 -18 5 -16 0 -22 -2 -12 -5z"/>
<path d="M2545 3040 c-3 -5 -2 -10 4 -10 5 0 13 5 16 10 3 6 2 10 -4 10 -5 0
-13 -4 -16 -10z"/>
<path d="M2295 3020 c-11 -5 -15 -9 -10 -10 6 -1 0 -5 -12 -10 -13 -5 -23 -15
-23 -21 0 -8 4 -8 13 -2 6 6 23 13 37 16 14 3 34 13 45 21 20 15 19 15 -5 15
-14 0 -34 -4 -45 -9z"/>
<path d="M2580 2994 c-33 -13 -33 -14 -5 -8 17 3 40 6 53 7 12 1 22 5 22 10 0
11 -31 7 -70 -9z"/>
<path d="M2373 2986 c-23 -6 -45 -14 -49 -19 -4 -4 -23 -7 -43 -8 -20 0 -52
-7 -71 -15 -21 -9 -25 -12 -10 -9 14 3 45 8 70 11 25 3 55 10 67 16 35 17 38
2 4 -18 -17 -10 -32 -23 -35 -29 -3 -9 113 62 133 81 7 6 -21 2 -66 -10z"/>
<path d="M2700 2973 c0 -12 28 -38 34 -32 2 2 -5 13 -15 23 -11 11 -19 15 -19
9z"/>
<path d="M2480 2960 c-14 -4 -19 -8 -12 -9 17 -1 15 -21 -5 -38 -16 -14 -16
-14 5 -2 13 8 23 18 22 22 -1 5 7 15 17 23 20 15 11 16 -27 4z"/>
<path d="M2794 2942 c-16 -13 -18 -20 -9 -29 17 -16 55 -26 55 -15 0 6 -11 13
-25 16 -21 6 -24 9 -13 20 8 7 28 12 45 11 18 -1 30 2 27 7 -9 14 -58 8 -80
-10z"/>
<path d="M2395 2939 c-4 -6 -5 -12 -2 -15 2 -3 7 2 10 11 7 17 1 20 -8 4z"/>
<path d="M2685 2920 c21 -24 26 -25 19 -6 -3 8 -13 17 -22 21 -13 5 -13 2 3
-15z"/>
<path d="M2570 2923 c-43 -8 -43 -21 -1 -19 26 0 41 5 41 13 0 7 -3 12 -7 12
-5 -1 -19 -4 -33 -6z"/>
<path d="M2195 2850 c-13 -6 -15 -9 -5 -9 8 0 22 4 30 9 18 12 2 12 -25 0z"/>
<path d="M2315 2687 c-59 -31 -81 -48 -83 -64 -4 -28 -6 -28 95 2 l83 26 0 39
c0 22 -3 40 -7 40 -5 -1 -44 -20 -88 -43z"/>
<path d="M2420 2691 l0 -38 168 -27 c202 -32 194 -32 190 -3 -3 20 -20 26
-163 64 -88 23 -168 42 -177 42 -14 1 -18 -7 -18 -38z"/>
<path d="M2313 2588 l-83 -31 0 -194 c0 -172 2 -194 17 -200 15 -6 14 -7 -3
-14 -20 -7 -19 -7 121 -69 l45 -19 0 279 c0 154 -3 280 -7 279 -5 0 -45 -14
-90 -31z"/>
<path d="M2420 2339 c0 -262 1 -280 18 -275 9 2 87 19 172 37 161 34 186 43
160 59 -10 7 -11 10 -2 10 10 0 12 43 10 197 l-3 196 -165 28 c-91 16 -171 29
-177 29 -10 0 -13 -63 -13 -281z m155 199 c6 -4 9 -60 7 -135 l-3 -129 -50
-10 c-27 -6 -51 -8 -54 -6 -7 7 -6 287 0 294 6 6 86 -5 100 -14z m22 -384 c-3
-3 -12 -4 -19 -1 -8 3 -5 6 6 6 11 1 17 -2 13 -5z m140 0 c-3 -3 -12 -4 -19
-1 -8 3 -5 6 6 6 11 1 17 -2 13 -5z m-40 -10 c-3 -3 -12 -4 -19 -1 -8 3 -5 6
6 6 11 1 17 -2 13 -5z m-40 -10 c-3 -3 -12 -4 -19 -1 -8 3 -5 6 6 6 11 1 17
-2 13 -5z"/>
<path d="M1730 2345 l0 -175 245 0 245 0 0 175 0 175 -245 0 -245 0 0 -175z
m132 128 c16 -14 18 -33 18 -140 l0 -123 -55 0 -55 0 0 122 c0 99 3 125 17
140 20 22 51 23 75 1z m150 0 c16 -14 18 -33 18 -140 l0 -123 -55 0 -55 0 0
122 c0 99 3 125 17 140 20 22 51 23 75 1z m150 0 c16 -14 18 -33 18 -140 l0
-123 -55 0 -55 0 0 126 c0 109 2 129 18 140 23 18 52 17 74 -3z"/>
<path d="M2790 2345 l0 -175 245 0 245 0 0 175 0 175 -245 0 -245 0 0 -175z
m131 135 c17 -10 19 -22 19 -140 l0 -130 -55 0 -55 0 0 122 c0 99 3 125 17
140 18 20 45 23 74 8z m153 -6 c13 -12 16 -40 16 -140 l0 -124 -55 0 -55 0 0
122 c0 99 3 125 17 140 20 22 56 23 77 2z m148 -1 c16 -14 18 -33 18 -140 l0
-124 -57 3 -58 3 1 123 c2 107 4 125 20 137 25 19 54 19 76 -2z"/>
<path d="M1792 2050 c-42 -10 -50 -18 -26 -27 26 -9 67 -53 50 -53 -40 0 -45
-73 -5 -85 24 -8 69 19 69 40 0 8 -8 23 -17 33 -11 10 -18 32 -18 56 0 44 -5
47 -53 36z m38 -30 c0 -5 -4 -10 -10 -10 -5 0 -10 5 -10 10 0 6 5 10 10 10 6
0 10 -4 10 -10z m25 -90 c0 -18 -33 -26 -47 -12 -6 6 -7 15 -3 22 10 16 50 8
50 -10z"/>
<path d="M3180 1950 c-25 -3 -45 -10 -45 -16 0 -17 63 -66 75 -59 8 5 8 11 0
20 -8 10 -6 18 10 33 26 24 18 29 -40 22z"/>
<path d="M3110 1874 c-14 -36 -13 -49 4 -35 10 8 21 8 40 1 34 -12 46 -13 46
-1 0 5 -15 15 -34 22 -21 8 -32 17 -29 26 3 7 0 13 -6 13 -6 0 -16 -12 -21
-26z"/>
<path d="M1843 1874 c-36 -18 -45 -39 -13 -31 23 6 24 3 8 -23 -19 -29 -3 -35
42 -15 45 20 54 41 14 31 -25 -7 -25 -6 -10 16 29 42 15 49 -41 22z"/>
<path d="M3076 1811 c-8 -12 53 -93 64 -86 4 3 5 16 2 30 -3 21 0 27 17 32 30
8 26 23 -6 23 -16 0 -38 3 -49 6 -12 3 -25 1 -28 -5z"/>
<path d="M1883 1789 c-39 -25 -39 -28 -13 -57 21 -22 41 -21 72 5 13 12 14 20
6 44 -12 34 -22 36 -65 8z m47 -24 c0 -19 -24 -30 -41 -19 -9 5 -7 11 6 21 24
17 35 17 35 -2z"/>
<path d="M3042 1753 l-21 -30 36 -26 c39 -28 65 -26 39 2 -12 13 -13 20 -4 29
6 6 9 15 5 19 -4 4 -13 1 -19 -5 -17 -17 -33 -15 -18 3 6 8 10 20 8 26 -2 7
-13 -1 -26 -18z"/>
<path d="M1925 1706 c-30 -45 20 -91 64 -59 23 16 28 52 9 71 -20 20 -56 14
-73 -12z m62 -12 c6 -16 -12 -34 -34 -34 -7 0 -13 9 -13 19 0 18 12 28 33 30
4 1 10 -6 14 -15z"/>
<path d="M1996 1641 c-16 -17 -25 -34 -21 -41 5 -8 10 -9 18 -1 18 18 25 13
20 -13 -3 -13 0 -27 6 -30 7 -5 14 4 17 23 4 21 14 31 32 36 24 6 25 8 9 17
-10 5 -25 7 -33 4 -12 -4 -14 -1 -9 14 9 28 -7 25 -39 -9z"/>
<path d="M3017 1653 c-12 -11 -8 -23 7 -23 8 0 16 7 20 15 5 15 -14 21 -27 8z"/>
<path d="M2900 1602 c0 -4 13 -23 29 -42 l30 -35 28 28 c19 19 23 27 12 27 -8
0 -20 -5 -25 -10 -7 -7 -18 -2 -34 15 -23 25 -40 32 -40 17z"/>
<path d="M2090 1554 c-23 -36 -22 -53 2 -38 7 5 27 9 44 9 31 0 32 0 18 -27
-14 -26 -13 -28 17 -43 39 -21 49 -12 18 15 l-24 21 28 -5 c30 -7 36 7 10 24
-15 10 -14 11 7 6 14 -3 28 -6 32 -6 4 0 5 -6 2 -14 -3 -8 5 -23 17 -35 19
-17 20 -21 6 -21 -9 0 -17 5 -17 10 0 6 -4 10 -10 10 -18 0 -10 -29 11 -40 15
-9 24 -8 35 1 18 15 18 28 -3 51 -9 11 -11 18 -5 18 7 0 12 -4 12 -10 0 -5 5
-10 10 -10 23 0 8 30 -17 36 -16 4 -40 16 -56 26 -15 11 -33 18 -40 15 -6 -2
-20 7 -30 20 -25 32 -42 29 -67 -13z m50 -4 c0 -5 -2 -10 -4 -10 -3 0 -8 5
-11 10 -3 6 -1 10 4 10 6 0 11 -4 11 -10z"/>
<path d="M2855 1570 c-9 -14 4 -88 16 -96 5 -3 14 7 19 21 8 20 15 25 30 20
29 -9 25 11 -7 33 -45 30 -51 33 -58 22z"/>
<path d="M2783 1511 c4 -17 2 -18 -19 -9 -33 15 -39 5 -22 -39 19 -45 44 -60
34 -19 -6 26 -6 27 18 11 32 -21 40 -6 21 39 -16 37 -41 51 -32 17z"/>
<path d="M2667 1493 c-19 -5 -19 -21 3 -77 8 -23 12 -24 40 -15 36 13 41 34 5
25 -30 -8 -34 10 -5 19 30 10 25 28 -6 21 -17 -5 -23 -3 -19 4 3 5 13 10 21
10 8 0 14 5 14 10 0 10 -21 11 -53 3z"/>
<path d="M2354 1482 c-12 -8 -54 -67 -54 -76 0 -3 13 -3 29 0 20 4 30 2 34
-10 4 -9 11 -16 17 -16 8 0 9 16 4 48 -7 52 -14 65 -30 54z"/>
<path d="M2407 1450 c-10 -46 -9 -70 3 -70 6 0 10 7 10 15 0 21 13 19 28 -5
17 -28 32 -16 32 26 0 28 4 35 18 32 12 -2 18 -14 20 -41 4 -45 22 -39 22 8 0
50 26 53 34 4 7 -41 26 -54 26 -17 l0 21 23 -21 c26 -25 42 -19 26 10 -5 10
-7 23 -4 29 14 21 -17 40 -54 34 -20 -3 -57 -6 -83 -7 -42 -1 -48 -4 -48 -22
0 -19 -2 -18 -23 8 l-24 29 -6 -33z m213 0 c0 -5 -7 -10 -16 -10 -8 0 -12 5
-9 10 3 6 10 10 16 10 5 0 9 -4 9 -10z"/>
<path d="M3380 2000 c0 -5 7 -10 16 -10 8 0 12 5 9 10 -3 6 -10 10 -16 10 -5
0 -9 -4 -9 -10z"/>
<path d="M1740 1685 c0 -8 5 -15 10 -15 6 0 10 7 10 15 0 8 -4 15 -10 15 -5 0
-10 -7 -10 -15z"/>
<path d="M1695 1670 c-10 -17 12 -37 25 -24 8 8 6 15 -4 23 -10 9 -16 9 -21 1z"/>
<path d="M1772 1588 c-16 -16 -15 -33 1 -46 18 -15 57 12 57 39 0 22 -38 27
-58 7z"/>
<path d="M3145 1540 c-8 -27 12 -52 39 -48 27 4 33 38 10 55 -25 19 -42 16
-49 -7z"/>
<path d="M1876 1501 c-3 -5 1 -14 8 -20 16 -13 32 2 21 19 -8 12 -22 13 -29 1z"/>
<path d="M3062 1458 c-15 -18 31 -71 47 -55 16 16 14 31 -7 50 -22 20 -26 21
-40 5z"/>
<path d="M1947 1412 c-24 -26 -21 -41 9 -48 29 -8 46 9 42 41 -4 26 -30 30
-51 7z"/>
<path d="M2226 1261 c-4 -7 -5 -15 -2 -18 9 -9 19 4 14 18 -4 11 -6 11 -12 0z"/>
<path d="M2670 1225 c0 -8 5 -15 10 -15 6 0 10 7 10 15 0 8 -4 15 -10 15 -5 0
-10 -7 -10 -15z"/>
<path d="M1120 4403 c-14 -9 -39 -27 -57 -40 l-32 -24 61 -89 c34 -50 67 -90
73 -90 19 1 120 86 123 104 7 34 -8 63 -38 76 -17 7 -30 20 -30 30 0 22 -31
50 -56 50 -11 0 -31 -7 -44 -17z m53 -48 c4 -9 -5 -22 -22 -35 -25 -17 -30
-18 -41 -5 -7 9 -11 17 -9 19 19 14 55 36 60 36 4 0 9 -7 12 -15z m57 -75 c0
-28 -45 -56 -65 -40 -21 17 -19 23 13 42 36 23 52 22 52 -2z"/>
<path d="M3803 4322 c-51 -31 -91 -61 -90 -66 7 -22 37 -31 57 -18 21 13 34 9
73 -22 14 -11 15 -19 8 -39 -8 -22 -6 -28 14 -41 27 -18 25 -23 66 133 22 81
22 84 4 97 -10 8 -24 14 -29 13 -6 0 -53 -26 -103 -57z m68 -55 c-8 -8 -14 -8
-23 1 -9 9 -8 15 8 26 17 13 19 13 22 -1 2 -8 -1 -20 -7 -26z"/>
<path d="M3982 4189 c-41 -43 -72 -83 -70 -87 2 -4 27 -29 56 -56 49 -46 54
-48 69 -33 16 15 14 19 -23 51 l-39 34 25 29 c13 15 40 45 59 66 35 37 35 37
16 57 -20 19 -21 18 -93 -61z"/>
<path d="M845 4176 c-18 -13 -16 -18 25 -122 24 -60 45 -111 47 -113 2 -3 13
4 24 16 17 16 19 25 10 41 -9 16 -6 24 16 46 28 29 36 31 62 16 14 -7 23 -5
36 10 10 11 16 22 14 24 -9 9 -193 96 -204 96 -6 0 -20 -6 -30 -14z m86 -67
c17 -9 18 -13 8 -26 -12 -13 -14 -13 -26 3 -24 32 -16 42 18 23z"/>
<path d="M4195 4109 c-5 -6 -36 -34 -67 -63 -69 -62 -74 -88 -27 -140 54 -62
81 -57 179 32 52 48 54 51 38 68 -16 16 -19 15 -65 -22 -26 -21 -54 -44 -61
-51 -23 -22 -51 -15 -58 14 -6 24 0 33 55 83 60 54 62 56 43 73 -21 19 -23 20
-37 6z"/>
<path d="M688 4007 c-76 -64 -58 -166 36 -202 41 -16 46 -16 80 0 42 20 76 70
76 112 0 23 -9 36 -37 56 l-36 26 -29 -36 c-32 -41 -33 -46 -13 -63 12 -10 18
-8 34 11 18 22 20 22 26 6 10 -23 -20 -67 -46 -67 -33 0 -78 29 -85 54 -8 34
12 66 41 66 25 0 51 32 40 50 -11 18 -59 10 -87 -13z"/>
<path d="M4283 3869 c-82 -60 -93 -75 -72 -96 8 -8 25 -2 63 25 l51 37 -42
-50 c-35 -43 -39 -53 -28 -68 15 -21 41 -21 75 -2 44 25 46 16 5 -19 -37 -32
-39 -36 -23 -52 15 -15 18 -15 50 8 18 14 59 44 91 67 l57 42 -25 26 -24 27
-53 -17 c-28 -9 -54 -15 -56 -12 -2 2 12 24 32 48 l36 44 -21 27 c-11 14 -23
26 -27 26 -4 -1 -44 -28 -89 -61z"/>
<path d="M543 3808 c-35 -39 -75 -110 -66 -118 4 -4 47 -33 95 -63 86 -55 88
-56 99 -35 10 19 8 25 -17 45 -16 13 -33 23 -38 23 -5 0 -3 7 4 15 8 9 30 15
59 15 37 0 53 5 69 23 12 13 22 26 22 30 0 4 -25 7 -55 7 -43 0 -55 3 -55 15
0 24 -46 65 -73 65 -13 0 -33 -10 -44 -22z m62 -47 c3 -6 -3 -23 -13 -40 -17
-27 -21 -29 -37 -17 -18 13 -18 15 -2 40 18 26 41 34 52 17z"/>
<path d="M4435 3645 c-49 -30 -91 -58 -92 -62 -2 -5 2 -15 7 -23 8 -12 17 -11
65 13 l57 28 -31 -57 c-34 -63 -38 -86 -17 -103 10 -9 33 1 105 45 90 55 102
69 80 91 -8 8 -24 4 -59 -18 -26 -16 -50 -29 -53 -29 -4 0 9 29 29 64 31 57
33 67 22 85 -7 12 -15 21 -18 21 -3 -1 -45 -25 -95 -55z"/>
<path d="M389 3557 c-11 -24 -7 -31 62 -111 41 -46 79 -85 86 -85 21 -2 26 39
8 59 -16 18 -16 21 2 52 12 20 28 34 44 36 22 3 49 26 49 43 0 4 -30 10 -67
13 -38 4 -91 9 -120 12 -49 6 -53 5 -64 -19z m121 -44 c0 -5 -4 -14 -8 -21 -7
-9 -13 -8 -27 8 -18 20 -18 20 8 20 15 0 27 -3 27 -7z"/>
<path d="M4543 3435 c-51 -24 -93 -48 -93 -52 0 -5 6 -17 13 -27 11 -16 19
-13 107 30 52 25 97 47 98 49 8 8 -10 45 -21 44 -7 0 -54 -20 -104 -44z"/>
<path d="M317 3404 c-22 -23 -4 -43 66 -72 65 -28 72 -33 72 -59 0 -39 -24
-41 -108 -8 -57 23 -71 25 -78 14 -5 -8 -9 -19 -9 -25 0 -12 143 -74 171 -74
29 0 68 40 75 75 12 64 0 83 -72 116 -78 34 -107 43 -117 33z"/>
<path d="M4630 3266 c-47 -17 -93 -35 -102 -38 -16 -7 -16 -11 4 -65 26 -70
53 -103 85 -103 13 0 34 10 46 23 13 12 35 23 51 23 28 2 55 28 56 55 0 22
-41 139 -48 138 -4 -1 -45 -15 -92 -33z m80 -62 c14 -36 13 -44 -9 -44 -12 0
-21 9 -25 25 -12 47 18 63 34 19z m-80 -33 c6 -17 9 -35 5 -40 -12 -20 -33
-11 -45 20 -11 26 -11 32 1 40 21 13 26 11 39 -20z"/>
<path d="M406 3115 c-3 -13 -10 -35 -15 -49 l-10 -24 -82 24 c-64 19 -85 21
-91 11 -21 -33 -8 -43 97 -71 58 -16 107 -27 109 -25 9 11 44 144 40 151 -11
18 -42 7 -48 -17z"/>
<path d="M4577 3023 c-11 -19 13 -53 36 -53 20 0 26 -7 35 -41 9 -35 8 -41 -9
-52 -20 -13 -27 -67 -8 -67 6 0 39 20 73 45 124 92 124 92 119 119 -3 14 -11
26 -17 26 -19 0 -179 20 -203 25 -12 3 -24 2 -26 -2z m153 -83 c-18 -13 -27
-15 -32 -7 -14 21 -8 27 25 27 l32 0 -25 -20z"/>
<path d="M168 2898 c-10 -45 -16 -83 -15 -85 6 -5 219 -44 223 -40 2 2 10 39
19 82 12 62 12 81 2 87 -26 16 -35 6 -46 -53 -10 -48 -16 -60 -29 -57 -14 3
-17 14 -14 61 2 54 1 57 -22 57 -21 0 -25 -6 -31 -50 -6 -41 -11 -50 -26 -50
-18 0 -19 4 -13 38 14 66 11 87 -11 90 -18 2 -22 -7 -37 -80z"/>
<path d="M4705 2795 c-44 -8 -80 -14 -81 -14 -4 -3 24 -152 29 -157 3 -4 13
-4 22 0 13 5 16 17 13 58 l-3 52 83 12 c46 7 85 14 87 16 3 2 2 14 -2 26 -6
26 -25 27 -148 7z"/>
<path d="M147 2754 c-18 -18 -4 -57 35 -100 l42 -46 -44 4 c-42 3 -45 1 -48
-24 -3 -26 -3 -26 85 -33 147 -12 138 -13 141 18 3 25 1 27 -32 27 -24 0 -38
6 -45 19 -9 15 -3 21 39 41 46 21 50 26 50 57 l0 34 -69 -36 -69 -36 -39 41
c-21 23 -42 38 -46 34z"/>
<path d="M4678 2593 c-22 -3 -28 -10 -28 -29 l0 -25 113 3 112 3 0 25 c0 25
-2 25 -85 26 -47 1 -97 -1 -112 -3z"/>
<path d="M285 2490 c-3 -5 -1 -10 4 -10 6 0 11 5 11 10 0 6 -2 10 -4 10 -3 0
-8 -4 -11 -10z"/>
<path d="M305 2203 c-11 -2 -53 -11 -92 -19 -68 -14 -73 -17 -73 -41 0 -25 2
-25 44 -20 43 6 44 6 50 -25 3 -18 14 -40 23 -50 23 -26 75 -23 102 6 21 22
21 26 10 90 -13 68 -15 70 -64 59z m17 -78 c6 -27 -11 -48 -28 -37 -18 12 -26
45 -12 54 23 14 36 9 40 -17z"/>
<path d="M4650 2201 c0 -5 -3 -16 -6 -24 -4 -12 8 -18 50 -28 31 -7 56 -16 56
-20 0 -4 -23 -13 -51 -19 -52 -13 -89 -39 -89 -63 0 -9 36 -21 106 -36 88 -19
108 -21 115 -10 17 27 9 37 -33 43 -76 12 -78 23 -9 43 48 14 65 24 72 42 5
13 7 26 5 29 -5 4 -192 51 -208 52 -5 0 -8 -4 -8 -9z"/>
<path d="M275 1978 c-47 -26 -65 -51 -65 -91 0 -101 102 -151 184 -90 81 59
37 194 -63 193 -20 0 -45 -6 -56 -12z m93 -54 c12 -8 22 -24 22 -35 0 -55 -95
-82 -125 -35 -20 30 -10 55 29 72 40 17 47 17 74 -2z"/>
<path d="M4643 1933 c-58 -4 -63 -6 -69 -30 -7 -28 -7 -29 119 -129 57 -45 57
-45 66 -22 7 17 4 28 -11 44 -18 20 -18 24 -4 58 12 28 21 36 40 36 15 0 26 4
26 9 0 5 3 16 6 25 6 17 -12 18 -173 9z m57 -62 c0 -19 -22 -23 -38 -7 -15 15
-14 16 11 16 15 0 27 -4 27 -9z"/>
<path d="M4521 1746 c-42 -93 -44 -103 -24 -110 16 -7 37 10 46 37 2 6 37 -4
82 -22 74 -30 80 -31 92 -15 7 10 13 20 13 23 0 3 -36 21 -80 40 -45 19 -79
39 -77 45 18 47 17 54 -3 59 -18 5 -26 -4 -49 -57z"/>
<path d="M368 1737 c-97 -40 -106 -48 -89 -76 8 -12 16 -11 53 4 23 9 49 20
57 23 8 3 -5 -21 -29 -52 -37 -51 -41 -61 -31 -82 11 -24 12 -24 48 -9 165 68
173 73 154 103 -6 10 -18 9 -60 -8 -28 -11 -54 -20 -57 -20 -2 0 14 25 36 55
44 60 46 64 28 87 -12 14 -23 11 -110 -25z"/>
<path d="M4435 1563 c-16 -32 -33 -66 -37 -76 -6 -14 8 -25 85 -64 51 -26 95
-49 98 -51 4 -2 24 31 45 73 33 64 37 77 24 85 -24 16 -28 13 -55 -40 -23 -45
-28 -49 -45 -40 -20 11 -20 11 1 51 11 23 18 47 15 55 -10 27 -35 14 -57 -30
-14 -28 -27 -42 -35 -39 -19 7 -17 22 6 61 24 39 25 58 4 66 -9 3 -17 6 -18 6
-1 0 -15 -26 -31 -57z"/>
<path d="M467 1526 c-97 -53 -101 -57 -83 -82 14 -19 15 -19 47 0 24 14 34 16
37 7 9 -28 55 -71 77 -71 33 0 75 37 75 66 0 32 -47 124 -63 123 -6 0 -47 -20
-90 -43z m95 -52 c15 -33 -7 -51 -34 -27 -21 19 -23 39 -5 46 22 10 27 7 39
-19z"/>
<path d="M4349 1395 c-36 -20 -63 -78 -55 -120 13 -67 110 -115 165 -82 38 22
60 56 66 102 6 37 4 41 -29 63 -20 12 -40 22 -46 22 -5 0 -19 -19 -31 -41 -17
-34 -18 -43 -7 -50 19 -12 26 -11 36 7 16 28 32 7 21 -26 -14 -38 -40 -45 -84
-24 -56 26 -60 94 -6 102 28 4 49 41 30 53 -19 12 -29 11 -60 -6z"/>
<path d="M625 1376 c-16 -12 -56 -41 -88 -65 l-57 -42 42 -61 c46 -65 63 -77
80 -60 9 9 3 24 -22 58 -32 45 -33 47 -14 61 20 15 27 10 64 -46 10 -15 21
-20 33 -16 23 9 22 22 -8 61 -28 36 -31 50 -13 56 7 3 28 -15 46 -38 21 -28
38 -41 47 -38 8 4 15 12 15 18 0 12 -33 61 -75 111 l-20 24 -30 -23z"/>
<path d="M748 1199 c-35 -20 -41 -47 -22 -100 14 -37 15 -52 6 -61 -20 -20
-45 11 -39 48 7 40 -14 64 -38 44 -28 -23 -19 -78 19 -116 40 -40 68 -43 101
-9 29 28 30 43 10 92 -22 52 -20 66 6 52 15 -8 20 -18 16 -35 -6 -31 29 -66
43 -44 20 31 11 71 -24 106 -36 36 -50 40 -78 23z"/>
<path d="M4177 1172 c-15 -17 -14 -23 24 -98 67 -128 67 -129 89 -109 15 13
16 21 7 45 -9 25 -8 32 13 53 19 20 31 24 53 20 26 -5 46 7 47 28 0 7 -189 79
-207 79 -5 0 -17 -8 -26 -18z m99 -63 c3 -6 1 -16 -5 -22 -9 -9 -14 -8 -21 3
-5 8 -10 18 -10 23 0 11 28 8 36 -4z"/>
<path d="M4062 1047 c-28 -30 -28 -30 8 -88 16 -27 28 -49 26 -49 -2 0 -24 11
-47 25 -53 30 -70 31 -94 5 -19 -20 -18 -22 60 -100 75 -75 80 -79 97 -63 18
16 17 18 -24 61 l-43 44 57 -31 56 -32 16 22 c14 20 13 25 -15 65 -41 60 -36
65 14 16 33 -33 46 -39 55 -30 18 18 15 28 -15 55 -16 14 -51 47 -79 74 l-50
49 -22 -23z"/>
<path d="M902 930 c-95 -46 -102 -51 -92 -70 12 -22 23 -25 50 -10 15 8 25 5
45 -12 21 -18 25 -29 21 -54 -5 -23 -1 -35 14 -49 19 -17 20 -17 26 1 4 11 22
57 41 103 38 97 39 102 15 124 -17 15 -25 13 -120 -33z m68 -37 c0 -5 -5 -15
-10 -23 -7 -12 -12 -12 -22 -2 -10 10 -10 15 2 22 18 12 30 13 30 3z"/>
<path d="M1066 788 c-36 -46 -66 -86 -66 -90 0 -4 27 -27 59 -52 53 -41 60
-44 72 -29 12 13 8 20 -25 49 l-39 34 27 37 c15 21 38 52 51 69 25 30 25 31 6
48 -19 17 -22 15 -85 -66z"/>
<path d="M3954 791 c-24 -21 -29 -32 -22 -45 13 -23 31 -20 61 12 26 27 27 29
10 44 -17 15 -20 14 -49 -11z"/>
<path d="M3740 773 c-38 -26 -49 -45 -50 -84 0 -42 34 -98 70 -116 40 -20 73
-15 113 18 31 26 37 36 37 70 0 47 -21 91 -52 113 -30 21 -87 20 -118 -1z m99
-59 c12 -15 21 -36 21 -47 0 -26 -28 -57 -51 -57 -23 0 -69 56 -69 85 0 48 67
60 99 19z"/>
<path d="M1281 628 c-28 -50 -51 -94 -51 -99 0 -5 9 -13 20 -19 17 -9 23 -6
40 22 11 18 20 36 20 41 0 4 19 -2 41 -14 34 -17 43 -18 50 -7 14 21 11 25
-26 47 -23 14 -33 25 -29 36 8 19 7 19 56 -6 27 -14 44 -17 51 -10 17 17 0 37
-61 69 l-61 32 -50 -92z"/>
<path d="M3530 639 c-30 -16 -58 -33 -63 -38 -4 -4 15 -45 43 -92 27 -46 50
-87 50 -91 0 -13 27 -9 39 6 9 11 8 22 -5 50 -10 20 -14 39 -11 43 4 3 32 -4
61 -16 43 -18 59 -20 75 -11 31 16 26 26 -24 47 -43 17 -45 19 -39 51 5 26 2
38 -17 58 -29 31 -42 30 -109 -7z m75 -38 c5 -9 -40 -51 -55 -51 -4 0 -11 8
-14 17 -12 29 52 60 69 34z"/>
<path d="M1460 520 c-69 -65 -82 -81 -70 -90 22 -14 41 -12 55 6 11 15 14 15
48 -1 30 -14 37 -23 37 -45 0 -20 6 -31 21 -35 11 -4 23 -5 25 -2 3 3 8 55 11
117 6 113 2 129 -32 130 -6 0 -48 -36 -95 -80z m80 -24 c0 -19 -4 -23 -20 -19
-20 5 -20 7 -4 24 22 24 24 24 24 -5z"/>
<path d="M3308 537 c-37 -30 -49 -67 -37 -111 24 -86 101 -120 169 -74 19 13
39 35 44 49 13 39 -1 94 -33 128 -24 26 -37 31 -73 31 -29 -1 -51 -8 -70 -23z
m107 -51 c25 -38 16 -89 -17 -100 -22 -8 -32 -6 -47 8 -25 23 -36 69 -21 95
16 30 65 28 85 -3z"/>
<path d="M1657 543 c-12 -11 -8 -43 6 -43 6 0 18 -4 26 -9 11 -7 9 -21 -14
-80 -29 -76 -28 -101 4 -101 15 0 24 13 37 53 9 28 23 64 30 79 13 25 17 26
39 16 28 -13 32 -11 37 16 3 19 -12 27 -143 71 -8 3 -18 2 -22 -2z"/>
<path d="M3080 463 c-25 -9 -46 -17 -48 -18 -3 -3 57 -206 63 -212 1 -2 30 7
66 18 96 32 124 75 76 122 -12 13 -21 31 -19 40 2 10 -4 29 -12 42 -19 30 -57
32 -126 8z m87 -49 c2 -7 -10 -16 -26 -22 -26 -9 -32 -8 -41 8 -8 14 -6 20 8
23 27 8 55 3 59 -9z m33 -83 c0 -20 -49 -39 -70 -26 -16 10 -12 33 8 38 41 11
62 7 62 -12z"/>
<path d="M1832 385 c-78 -106 -80 -111 -47 -117 18 -4 29 0 36 13 18 34 89 17
89 -22 0 -19 44 -48 56 -36 3 3 1 54 -6 114 -12 105 -24 133 -54 133 -6 0 -39
-38 -74 -85z m61 -43 c-22 -5 -27 6 -12 24 12 15 14 14 20 -3 4 -12 1 -19 -8
-21z"/>
<path d="M2045 418 c-6 -19 -35 -202 -32 -204 1 -1 13 -4 27 -6 22 -3 26 2 34
40 7 33 13 42 30 42 39 0 49 -14 41 -57 -6 -36 -4 -41 16 -46 13 -4 25 -5 26
-3 8 8 34 199 29 212 -3 8 -14 14 -24 14 -15 0 -21 -10 -26 -40 -5 -33 -10
-40 -29 -40 -38 0 -50 14 -42 50 5 23 3 35 -6 41 -20 13 -39 11 -44 -3z"/>
<path d="M2926 414 c-3 -9 -6 -36 -6 -60 0 -24 -4 -44 -8 -44 -4 0 -16 23 -27
50 -18 46 -22 50 -52 50 -17 0 -34 -4 -38 -9 -5 -8 21 -211 28 -218 2 -1 13 0
26 4 21 5 22 10 16 57 l-6 51 22 -47 c16 -37 27 -48 44 -48 27 0 35 16 36 73
l1 42 12 -50 c9 -39 17 -51 34 -53 26 -4 27 8 11 107 -18 115 -16 111 -53 111
-22 0 -36 -6 -40 -16z"/>
<path d="M2645 391 l-60 -6 3 -100 c1 -55 4 -106 7 -113 4 -10 22 -12 77 -7
94 8 98 10 91 35 -5 19 -12 21 -62 18 -52 -3 -56 -1 -59 20 -3 19 1 22 31 22
48 0 67 9 67 31 0 16 -8 19 -50 19 -68 0 -69 25 -2 35 26 4 50 9 54 11 13 8
-5 44 -21 42 -9 -1 -43 -4 -76 -7z"/>
<path d="M2377 383 c-4 -3 -7 -15 -7 -25 0 -14 8 -18 36 -18 l36 0 -8 -90 -7
-90 26 0 c23 0 26 5 31 43 4 23 7 62 9 87 2 42 4 44 32 45 23 0 30 5 30 20 0
16 -9 21 -45 27 -60 9 -125 10 -133 1z"/>
<path d="M2260 256 c0 -19 6 -24 37 -29 44 -8 53 -3 53 29 0 22 -4 24 -45 24
-41 0 -45 -2 -45 -24z"/>
</g>
</svg>
